<?xml version="1.0" standalone="no"?>
<!DOCTYPE svg PUBLIC "-//W3C//DTD SVG 20010904//EN"
 "http://www.w3.org/TR/2001/REC-SVG-20010904/DTD/svg10.dtd">
<svg version="1.0" xmlns="http://www.w3.org/2000/svg"
 width="674.000000pt" height="509.000000pt" viewBox="0 0 674.000000 509.000000"
 preserveAspectRatio="xMidYMid meet">

<g transform="translate(0.000000,509.000000) scale(0.100000,-0.100000)"
fill="#000000" stroke="none">
<path d="M4664 4450 c-365 -32 -795 -195 -1168 -441 -74 -49 -138 -89 -141
-89 -3 0 -52 22 -108 50 -262 127 -527 206 -807 242 -150 19 -499 16 -621 -5
-423 -73 -628 -293 -564 -608 52 -262 233 -413 580 -487 110 -24 141 -26 367
-27 210 0 249 -2 253 -15 4 -8 9 -133 12 -277 l6 -262 -24 -5 c-345 -73 -557
-141 -778 -248 -289 -142 -489 -334 -545 -527 -20 -67 -20 -188 -2 -257 143
-537 1252 -920 2504 -865 1057 47 1854 371 2033 826 19 50 23 78 23 165 0 91
-4 113 -27 170 -128 305 -517 546 -1122 695 l-130 31 0 235 0 234 55 2 c491
20 772 104 1036 309 195 151 301 330 312 525 7 141 -26 238 -119 343 -175 199
-618 323 -1025 286z m346 -140 c104 -13 247 -50 346 -90 351 -140 420 -419
175 -705 -100 -117 -270 -229 -441 -290 -164 -58 -390 -95 -586 -95 -244 0
-686 41 -982 91 -95 16 -189 29 -207 29 -57 0 -85 -64 -47 -108 17 -21 51 -29
352 -76 120 -19 474 -56 539 -56 26 0 63 -3 81 -7 l33 -6 -6 -116 c-4 -64 -7
-166 -7 -226 l0 -111 -122 18 c-410 59 -989 65 -1373 13 -60 -8 -121 -15 -135
-15 l-25 0 -1 223 c-2 252 -17 394 -71 652 -45 218 -52 237 -84 249 -37 13
-74 1 -87 -29 -10 -21 -6 -52 23 -179 18 -84 37 -177 41 -206 l7 -52 -249 5
c-204 4 -265 8 -339 25 -263 61 -403 169 -449 347 -57 217 53 374 314 448 222
63 640 61 935 -4 158 -35 383 -117 537 -194 353 -179 627 -260 970 -286 120
-9 189 -9 304 0 223 18 264 32 264 93 0 26 -30 68 -47 68 -5 0 -62 -7 -128
-15 -220 -28 -490 -14 -701 35 -106 25 -334 99 -334 108 1 17 190 132 348 212
416 209 801 293 1152 250z m-1680 -1964 l0 -133 -142 -7 c-760 -36 -1345 -196
-1547 -422 -56 -64 -76 -119 -69 -194 21 -221 456 -424 1103 -515 151 -22 440
-45 558 -45 l97 0 0 -135 0 -135 -47 0 c-90 0 -368 20 -493 36 -738 92 -1320
340 -1494 637 -131 222 -12 465 322 661 321 188 840 326 1377 366 136 10 179
12 298 18 l37 2 0 -134z m530 108 c570 -51 1061 -193 1385 -402 39 -24 107
-81 151 -126 103 -102 143 -178 151 -280 8 -98 -13 -165 -80 -257 -196 -274
-733 -496 -1427 -588 -141 -19 -421 -41 -527 -41 l-43 0 0 135 0 135 89 0
c122 0 432 26 594 50 726 106 1165 358 1062 608 -25 60 -64 108 -119 151 -179
138 -491 246 -896 310 -165 26 -537 60 -677 61 l-53 0 0 135 0 135 113 -6 c61
-3 186 -12 277 -20z m-1122 -650 c72 -30 131 -110 132 -180 0 -43 -26 -113
-53 -143 -69 -74 -206 -81 -284 -13 -84 74 -85 221 -1 299 54 51 138 66 206
37z m1479 -8 c189 -88 123 -376 -86 -376 -63 0 -97 13 -140 53 -104 99 -73
274 59 331 51 22 108 19 167 -8z"/>
</g>
</svg>
